# xmcd CD database file
#
# Track frame offsets:
#	150
#	21008
#	49737
#	64125
#	88878
#	111309
#	135163
#	168464
#	192536
#	209407
#
# Disc length: 3130 seconds
#
# Revision: 0
# Processed by: cddbd v1.5.1PL0 Copyright (c) Steve Scherf et al.
# Submitted via: CDex 1.51
#
DISCID=8e0c380a
DTITLE=Mei Mei and Friends - Come with Me
DYEAR=2000
DGENRE=Jazz
TTITLE0=How Deep is Your Love
TTITLE1=Antonio's Song
TTITLE2=I Left My Heart in San Francisco
TTITLE3=Come with Me
TTITLE4=Beautiful Love
TTITLE5=Imagine
TTITLE6=My One and Only Love
TTITLE7=Sesaat Kau Hadir
TTITLE8=Emily
TTITLE9=Bye Bye Blackbird
EXTD=YEAR: 2000
EXTT0=
EXTT1=
EXTT2=
EXTT3=
EXTT4=
EXTT5=
EXTT6=
EXTT7=
EXTT8=
EXTT9=
PLAYORDER=
